<svg xmlns="http://www.w3.org/2000/svg" xmlns:xlink="http://www.w3.org/1999/xlink" viewBox="-6124.008 19.952 167.938 36.497"><defs><style>.a{fill:#19164e;}.b{fill:url(#a);}</style><linearGradient id="a" y1="0.5" x2="1" y2="0.5" gradientUnits="objectBoundingBox"><stop offset="0" stop-color="#00c0f2"/><stop offset="0.132" stop-color="#0bc0e2"/><stop offset="0.389" stop-color="#28c0b9"/><stop offset="0.742" stop-color="#56c077"/><stop offset="1" stop-color="#7bc043"/></linearGradient></defs><g transform="translate(-6124.052 19.912)"><g transform="translate(0.044 0.041)"><g transform="translate(14.851 3.014)"><path class="a" d="M65.172,44.752H52.355a5.5,5.5,0,0,0,5.607,5.133,4.583,4.583,0,0,0,4.361-2.314h2.4c-.89,2.551-3.5,4.213-6.824,4.213a7.657,7.657,0,0,1-7.8-7.921A7.643,7.643,0,0,1,57.9,36c4.272,0,7.269,3.323,7.3,7.832C65.2,44.159,65.2,44.456,65.172,44.752ZM52.355,43.031H62.976c-.267-3.026-2.166-5.133-5.133-5.133A5.451,5.451,0,0,0,52.355,43.031Z" transform="translate(-50.1 -28.346)"/><path class="a" d="M147.45,46.384h2.314a6.859,6.859,0,0,1-7.031,5.429,7.907,7.907,0,0,1,0-15.813,6.809,6.809,0,0,1,7.031,5.429H147.45a4.557,4.557,0,0,0-4.747-3.382,5.543,5.543,0,0,0-5.578,5.845,5.552,5.552,0,0,0,5.578,5.874A4.579,4.579,0,0,0,147.45,46.384Z" transform="translate(-109.741 -28.346)"/><path class="a" d="M224.225,33.252H222V10.2h2.2V33.252Z" transform="translate(-171 -10.2)"/><path class="a" d="M270,14.583a1.544,1.544,0,0,1,3.086,0,1.474,1.474,0,0,1-1.572,1.483A1.441,1.441,0,0,1,270,14.583Zm2.611,20.709h-2.2V20.28h2.2Z" transform="translate(-204.759 -12.24)"/><path class="a" d="M336.1,43.892a7.8,7.8,0,0,1-7.773,7.921,7.6,7.6,0,0,1-5.429-2.106v9.731h-2.2V36.386h2.2v1.721A7.546,7.546,0,0,1,328.325,36,7.788,7.788,0,0,1,336.1,43.892Zm-2.2,0a5.869,5.869,0,0,0-5.815-5.934,6.043,6.043,0,0,0-5.162,2.789v6.319a6.043,6.043,0,0,0,5.162,2.789A5.876,5.876,0,0,0,333.9,43.892Z" transform="translate(-240.417 -28.346)"/><path class="a" d="M407.877,46.529c.445,2.047,2.047,3.293,4.955,3.293,2.433,0,4.094-1.038,4.094-2.67,0-1.335-1.068-2.136-2.611-2.373l-3.412-.593c-2.492-.386-4.45-1.483-4.45-4.035,0-2.7,2.4-4.45,5.993-4.45,3.056,0,6.23,1.335,6.5,4.777H416.9c-.3-1.958-1.928-3-4.45-3-2.373,0-3.827,1.038-3.827,2.492,0,1.127.8,2.017,2.967,2.344l3,.534c2.166.356,4.48,1.305,4.48,4.154,0,2.908-2.64,4.628-6.29,4.628-3.887,0-6.5-1.721-6.972-5.133h2.077Z" transform="translate(-300.269 -28.135)"/><path class="a" d="M499.5,44.682l-.119-.059v.059H486.655a5.5,5.5,0,0,0,5.607,5.133,4.583,4.583,0,0,0,4.361-2.314h2.4c-.89,2.551-3.5,4.213-6.824,4.213a7.657,7.657,0,0,1-7.8-7.921,7.633,7.633,0,0,1,7.8-7.892c4.272,0,7.269,3.323,7.3,7.832A5.064,5.064,0,0,1,499.5,44.682Zm-12.846-1.721h10.621c-.267-3.026-2.166-5.133-5.133-5.133A5.471,5.471,0,0,0,486.655,42.961Z" transform="translate(-355.55 -28.275)"/></g><path class="b" d="M36.018,22.072a14.463,14.463,0,1,1-.03-7.8h.089a18.23,18.23,0,1,0,.059,7.8Z" transform="translate(-0.044 -0.041)"/></g><g transform="translate(160.113 10.442)"><path class="a" d="M539.217,35.632h-1.242v3.313h-.532V35.632H536.2v-.473h3.017Zm4.851,3.254h-.532V35.692h0l-1.3,3.195h-.355l-1.3-3.195h0v3.195h-.533V35.1h.828l1.183,2.9,1.183-2.9h.828Z" transform="translate(-536.2 -35.1)"/></g></g></svg>