<svg xmlns="http://www.w3.org/2000/svg" xmlns:xlink="http://www.w3.org/1999/xlink" viewBox="-6124.045 19.952 158.067 36.093"><defs><style>.a{fill:#19164e;}.b{fill:url(#a);}</style><linearGradient id="a" y1="0.5" x2="1" y2="0.5" gradientUnits="objectBoundingBox"><stop offset="0" stop-color="#00c0f2"/><stop offset="0.132" stop-color="#0bc0e2"/><stop offset="0.389" stop-color="#28c0b9"/><stop offset="0.742" stop-color="#56c077"/><stop offset="1" stop-color="#7bc043"/></linearGradient></defs><g transform="translate(-6124.043 19.959)"><path class="a" d="M65.351,44.4h-13a5.8,5.8,0,0,0,6,5c2.063,0,3.322-.586,4-2h2c-.884,2.534-3.7,4-7,4-4.538,0-7-3.58-7-8,0-4.361,2.462-7,7-7,4.243,0,7.971,2.521,8,7C65.351,43.729,65.38,44.11,65.351,44.4Zm-13-1h11c-.265-3.005-3.054-6-6-6C54.2,37.4,52.675,40.606,52.351,43.4Z" transform="translate(-35.308 -25.364)"/><path class="a" d="M147.165,46.4h2c-.619,3.182-2.435,5-6,5a7.942,7.942,0,0,1-8-8c0-4.39,3.492-7,8-7,3.565,0,5.411,1.788,6,5h-2c-.471-2.033-2.584-3-5-3-3.359,0-5,1.818-5,5,0,3.212,1.641,6,5,6C144.581,49.4,146.664,48.438,147.165,46.4Z" transform="translate(-95.122 -25.364)"/><path class="a" d="M224.6,33.207h-3v-23h3v23Z" transform="translate(-156.558 -7.166)"/><path class="a" d="M270.458,14.252c0-.825.175-1,1-1,.884,0,2,.175,2,1a2.368,2.368,0,0,1-2,2C270.633,16.282,270.458,15.136,270.458,14.252Zm2,21h-2v-15h2Z" transform="translate(-190.415 -9.212)"/><path class="a" d="M336.22,43.4a8.094,8.094,0,0,1-8,8,6.567,6.567,0,0,1-5-2v10h-3v-23h3v2a6.523,6.523,0,0,1,5-2C332.522,36.4,336.22,39.044,336.22,43.4Zm-2,0c0-3.182-2.729-5-6-5-2.062,0-3.733.144-5,2v7c1.267,1.856,2.938,2,5,2A6.1,6.1,0,0,0,334.22,43.4Z" transform="translate(-226.176 -25.364)"/><path class="a" d="M408.245,46.193a4.952,4.952,0,0,0,5,4c2.416,0,4-1.379,4-3,0-1.326-1.468-1.764-3-2l-3-1c-2.475-.383-5-1.466-5-4,0-2.681,2.435-4,6-4,3.035,0,6.735.582,7,4h-2c-.295-1.945-2.5-3-5-3-2.357,0-4,1.556-4,3,0,1.12.849,1.676,3,2l3,1c2.151.354,5,1.171,5,4,0,2.888-3.376,4-7,4-3.86,0-5.529-1.612-6-5Z" transform="translate(-286.202 -25.153)"/><path class="a" d="M499.686,44.334h-13a5.8,5.8,0,0,0,6,5c2.063,0,3.322-.586,4-2h2c-.884,2.534-3.7,4-7,4-4.538,0-7-3.58-7-8,0-4.39,2.433-7,7-7,4.243,0,7.971,2.521,8,7A5.642,5.642,0,0,1,499.686,44.334Zm-13-1h11c-.265-3.005-3.054-6-6-6C488.563,37.334,487.01,40.535,486.686,43.334Z" transform="translate(-341.643 -25.294)"/><path class="b" d="M36.043,22.041c-1.562,5.716-6.754,9.558-13,10a13.8,13.8,0,0,1-15-13,13.8,13.8,0,0,1,13-15c6.895-.5,13.2,3.577,15,10h0a18.088,18.088,0,0,0-19-14c-9.988.707-17.707,9.012-17,19s9.012,17.707,19,17c8.25-.589,15.379-6.28,17-14Z" transform="translate(0 0)"/></g></svg>