<svg xmlns="http://www.w3.org/2000/svg" viewBox="-5532 1784 150 150"><defs><style>.a{fill:#19164e;}.b{fill:#fff;}</style></defs><g transform="translate(-6153 1228)"><path class="a" d="M75,0A75,75,0,1,1,0,75,75,75,0,0,1,75,0Z" transform="translate(621 556)"/><path class="b" d="M144.908,15.572c-2.1-.639-4.358-.821-6,0a9.242,9.242,0,0,0-4,5c-1.277,4.287.713,7.723,5,9a11.014,11.014,0,0,0,3,0,6.89,6.89,0,0,0,7-5C151.185,20.376,149.2,16.849,144.908,15.572Zm1,8c-.73,2.372-2.628,3.73-5,3s-2.73-2.628-2-5a5.644,5.644,0,0,1,2-3c.456-.274.453,0,1,0a7.335,7.335,0,0,1,2,0C146.189,19.3,146.547,21.2,145.908,23.572Zm59,38-7-2a16.479,16.479,0,0,0,0-3l6-4c.821-.547.456-1.179,0-2l-4-8c-.456-.821-1.179-1.365-2-1l-7,3a20.672,20.672,0,0,0-2-2l2-7c.182-.912-1.088-1.726-2-2l-8-2a1.521,1.521,0,0,0-2,1l-3,7a7.343,7.343,0,0,0-2,0l-4-6a2.809,2.809,0,0,0-3-1l-7,4c-.821.456-1.365,1.179-1,2l3,7a20.674,20.674,0,0,0-2,2l-7-1a1.554,1.554,0,0,0-2,1l-3,8c-.274.912,1.088,1.635,2,2l6,3c0,.912.818,2.088,1,3l-7,4c-.821.547-.456,1.179,0,2l4,8c.456.821,1.179.365,2,0l7-2c.639.638,1.362.544,2,1l-2,7c-.182.912,1.088,2.726,2,3l8,2c.182.091-.182,0,0,0a2.407,2.407,0,0,0,2-1l3-7a7.343,7.343,0,0,0,2,0l4,6a2.809,2.809,0,0,0,3,1l7-4a2.92,2.92,0,0,0,1-3l-3-6a20.674,20.674,0,0,0,2-2l7,1a1.554,1.554,0,0,0,2-1l3-8C206.091,63.569,205.729,61.937,204.908,61.572Zm-5,8-6-1c-.73-.182-1.635-.639-2,0a20.836,20.836,0,0,1-3,4c-.547.547-1.274,1.362-1,2l3,6-5,3-3-6a2.1,2.1,0,0,0-2-1,30.332,30.332,0,0,1-5,1c-.73,0-.726.362-1,1l-3,6-5-1,2-7a2.025,2.025,0,0,0-1-2,18.357,18.357,0,0,1-4-3c-.547-.547-1.362-.274-2,0l-6,2-2-4,5-4a2.1,2.1,0,0,0,1-2,19.536,19.536,0,0,1,0-4,2.293,2.293,0,0,0-1-2l-7-2,2-5,6,1a2.025,2.025,0,0,0,2-1,15.569,15.569,0,0,1,3-3c.547-.547,1.274-1.361,1-2l-3-7,4-2,4,6c.456.639,1.27.182,2,0a19.536,19.536,0,0,1,4,0h1c.73,0,.635-.361,1-1l3-6,5,1-2,7a2.025,2.025,0,0,0,1,2,10.78,10.78,0,0,1,3,2c.547.547,1.362,1.274,2,1l7-3,2,5-5,4a2.1,2.1,0,0,0-1,2,19.535,19.535,0,0,1,0,4,2.293,2.293,0,0,0,1,2l7,2Zm-20-21a11.538,11.538,0,0,0-9,1c-2.736,1.459-4.088,3.99-5,7a11.538,11.538,0,0,0,1,9,12.283,12.283,0,0,0,7,6c1.095.365,1.905,0,3,0a11.075,11.075,0,0,0,11-8A12.133,12.133,0,0,0,179.908,48.572Zm5,14c-1.277,4.287-5.622,6.277-10,5a8.445,8.445,0,0,1-5-4c-1-1.916-1.639-3.9-1-6a8.445,8.445,0,0,1,4-5,8.952,8.952,0,0,1,4-1c.821,0,1.179.726,2,1C183.378,53.849,186.276,58.285,184.908,62.572Zm-35-19,6-3c.821-.456,1.365-1.179,1-2l-2-5a10.336,10.336,0,0,0,1-1l5,1c.912.182,1.726-1.088,2-2l2-6a1.521,1.521,0,0,0-1-2l-5-2a14.637,14.637,0,0,0,0-2l4-2a2.809,2.809,0,0,0,1-3l-3-6c-.456-.821-2.179-.365-3,0l-5,2a10.334,10.334,0,0,0-1-1l1-5c.182-.912-.088-2.726-1-3l-6-1a1.521,1.521,0,0,0-2,1l-2,5a14.635,14.635,0,0,0-2,0l-3-5c-.547-.821-1.179-.456-2,0l-6,3c-.821.456-1.365,1.179-1,2l2,5a10.341,10.341,0,0,0-1,1l-5-1a1.554,1.554,0,0,0-2,1l-2,6c-.274.912.088,2.635,1,3l5,2a3.671,3.671,0,0,0,0,1l-4,3a2.809,2.809,0,0,0-1,3l3,5c.456.821,1.179,1.365,2,1l5-2c.365.365,1.544.635,2,1l-2,5c-.182.912,1.088,1.726,2,2l6,2a3.672,3.672,0,0,0,1,0c.73,0,.635-.361,1-1l2-5a14.634,14.634,0,0,0,2,0l3,5C148.455,44.3,149.087,44.028,149.908,43.572Zm-3-8a2.1,2.1,0,0,0-2-1c-1,.274-1.905,1.091-3,1a2.1,2.1,0,0,0-2,1l-1,4-4-1,1-5c.182-.73.639-.635,0-1a17.174,17.174,0,0,1-3-2c-.547-.547-1.361-1.274-2-1l-4,2-2-3,4-3c.639-.456,1.182-.27,1-1a14.681,14.681,0,0,1,0-4c0-.73-.362-.726-1-1l-5-2,1-3,5,1a2.025,2.025,0,0,0,2-1,17.175,17.175,0,0,1,2-3c.547-.547.274-1.361,0-2l-2-4,3-1,3,4c.456.639,1.27.182,2,0a8.287,8.287,0,0,1,3,0,2.293,2.293,0,0,0,2-1l2-5,3,1-1,5c-.182.73-.639,1.635,0,2a17.174,17.174,0,0,1,3,2c.547.547,1.361,1.274,2,1l4-2,2,2-4,3a2.1,2.1,0,0,0-1,2,8.286,8.286,0,0,1,0,3,2.293,2.293,0,0,0,1,2l5,2-1,3-5-1a2.025,2.025,0,0,0-2,1,10.385,10.385,0,0,1-2,2c-.547.547-.274,1.361,0,2l2,5-3,1Z" transform="translate(533.092 593.428)"/></g></svg>