<svg xmlns="http://www.w3.org/2000/svg" viewBox="-5857 1784 150 150"><defs><style>.a{fill:#19164e;}.b{fill:#fff;}</style></defs><g transform="translate(-6204 12)"><path class="a" d="M75,0A75,75,0,1,1,0,75,75,75,0,0,1,75,0Z" transform="translate(347 1772)"/><path class="b" d="M85.285,19.3c-2.817-3.09-5.819-6.182-9-8-5.09-2.817-19-5.725-28,3l-3,3-3-2c-10.634-10.361-25-7.179-34,2a28.318,28.318,0,0,0-8,16,21.565,21.565,0,0,0,6,18l5,5-1,1a6.972,6.972,0,0,0,0,10l1,1a7.007,7.007,0,0,0,5,2,3.685,3.685,0,0,0,1,0h0a6.859,6.859,0,0,0,2,5v1a6.859,6.859,0,0,0,5,2,14.688,14.688,0,0,0,2,0h0a6.859,6.859,0,0,0,2,5l1,1a6.859,6.859,0,0,0,5,2,3.685,3.685,0,0,0,1,0h0a6.859,6.859,0,0,0,2,5l1,1a7.25,7.25,0,0,0,10,0l5-5a9.134,9.134,0,0,0,2-3,6.923,6.923,0,0,0,5,2,6.391,6.391,0,0,0,5-2c1.272-1.272,3-3.091,3-5a3.685,3.685,0,0,0,1,0c2.181,0,4.455-1.455,6-3a5.739,5.739,0,0,0,2-5h0a7.682,7.682,0,0,0,5-2c2.727-2.545,3.908-7.637,1-11l5-5C98.918,43.025,94.373,29.02,85.285,19.3Zm-67,46a3.568,3.568,0,0,1-5,0h0a3.568,3.568,0,0,1,0-5l8-8a2.415,2.415,0,0,1,2-1h0a5.166,5.166,0,0,1,3,1h0a4.769,4.769,0,0,1,1,3c0,1-.364,1.273-1,2Zm9,9a4.769,4.769,0,0,1-3,1c-1,0-1.273-.364-2-1l-1-1a4.961,4.961,0,0,1-1-3c0-1,.364-1.273,1-2l13-13a4.769,4.769,0,0,1,3-1c1,0,1.273.364,2,1l1,1a2.415,2.415,0,0,1,1,2,5.166,5.166,0,0,1-1,3Zm9,7a2.415,2.415,0,0,1-2,1,4.961,4.961,0,0,1-3-1h-1a4.769,4.769,0,0,1-1-3c0-1,.364-1.273,1-2l9-9a4.6,4.6,0,0,1,3-1c.909,0,1.273.364,2,1l1,1a2.415,2.415,0,0,1,1,2,5.166,5.166,0,0,1-1,3Zm15,3-6,5a2.415,2.415,0,0,1-2,1,4.961,4.961,0,0,1-3-1h-1a4.769,4.769,0,0,1-1-3c0-1,.364-1.273,1-2l6-6a2.415,2.415,0,0,1,2-1h0c.454,0,1.546.818,2,1h0l2,3C51.739,82.477,52.284,83.3,51.285,84.3Zm30-28-21-22c-.727-.727-1.273-.636-2,0a2.456,2.456,0,0,0,0,3l22,23a4.366,4.366,0,0,1,0,6c-.727.727-2.637,2.454-5,0l-1-1-11-11a1.19,1.19,0,0,0-2,0,2.336,2.336,0,0,0,0,3h1v1l10,10h0a4.148,4.148,0,0,1,0,6,3.265,3.265,0,0,1-5,0l-12-12a2.121,2.121,0,0,0-3,3l10,10c.091.273.727.727,1,1,2.545,2.636.727,4.273,0,5a4.461,4.461,0,0,1-6,0l-2-2c-.364-.727-1.455-1.364-2-2l-1-1c-1.091-1.091-1.546-1.727-3-2a8.693,8.693,0,0,0,1-4c0-1.909-1.637-3.637-3-5h0a7.967,7.967,0,0,0-4-2c.909-1.182,1-3.455,1-5a6.859,6.859,0,0,0-2-5h0a6.859,6.859,0,0,0-5-2h0c-1.909,0-4.637.637-6,2h0c-.273-1.454-.909-2-2-3l-1-1a6.859,6.859,0,0,0-5-2h0a6.859,6.859,0,0,0-5,2l-4,4-5-5c-8.907-9-5.18-20.638,2-28,10.724-10.815,22.456-9.362,29-3l2,3-11,11a4.834,4.834,0,0,0,0,7c3,3.09,11.092,3.817,16-1l4-4c2.09-1.909,4.183-1.182,8,0,4.544,1.363,10.82,2.908,17-2,.818-.636.636-2.182,0-3s-2.182-.636-3,0c-4.817,3.726-8.728,2.272-13,1-3.726-1.091-8.183-2.454-12,1l-4,5c-3.363,3.363-9.273,2.727-11,1a1.328,1.328,0,0,1,0-2l18-17c8.18-7.907,20.364-4.454,23-3,2.908,1.636,5.455,4.273,8,7,11.633,12.542,9.817,24.183,4,30Z" transform="translate(374.715 1803.705)"/></g></svg>