<svg xmlns="http://www.w3.org/2000/svg" xmlns:xlink="http://www.w3.org/1999/xlink" viewBox="-5854.227 203.759 792.338 181.473"><defs><style>.a{fill:#fff;}.b{fill:url(#a);}</style><linearGradient id="a" y1="0.5" x2="1" y2="0.5" gradientUnits="objectBoundingBox"><stop offset="0" stop-color="#00c0f2"/><stop offset="0.132" stop-color="#0bc0e2"/><stop offset="0.389" stop-color="#28c0b9"/><stop offset="0.742" stop-color="#56c077"/><stop offset="1" stop-color="#7bc043"/></linearGradient></defs><g transform="translate(-5854 203.677)"><path class="a" d="M125.946,80.446l-2-2v2h-62c1.626,14.195,10.883,24,27,24,10.35,0,18.6-3.9,22-11h12c-4.436,12.716-17.439,21-34,21-22.771,0-39-16.82-39-39,0-21.884,16.229-39,39-39,21.292,0,36.852,16.525,37,39C125.946,77.072,126.094,78.967,125.946,80.446Zm-64-9h53c-1.331-15.082-11.214-26-26-26C73.125,45.446,63.573,57.4,61.946,71.446Z" transform="translate(24.054 16.877)"/><path class="a" d="M197.207,87.446h11c-3.105,15.969-16.108,27-34,27-22.623,0-39-16.82-39-39,0-22.032,16.377-39,39-39,17.892,0,31.043,10.883,34,27h-11c-2.366-10.2-11.875-18-24-18-16.856,0-27,14.031-27,30,0,16.117,10.143,29,27,29C185.331,104.446,194.693,97.648,197.207,87.446Z" transform="translate(64.794 16.877)"/><path class="a" d="M233.541,125.764h-11v-115h11v115Z" transform="translate(106.459 4.558)"/><path class="a" d="M270.549,20.489c0-4.14,2.86-8,7-8,4.436,0,7,3.86,7,8,0,4.436-2.564,7-7,7C273.409,27.637,270.549,24.925,270.549,20.489Zm12,104h-11v-75h11Z" transform="translate(129.451 5.834)"/><path class="a" d="M398.323,75.446c0,22.032-18.412,39-40,39-10.942,0-20.2-3.346-27-10v48h-11v-114h11v9a37.83,37.83,0,0,1,27-11C379.911,36.446,398.323,53.562,398.323,75.446Zm-11,0c0-15.969-13.587-30-30-30-10.35,0-19.642,4.685-26,14v32c6.358,9.315,15.65,13,26,13C373.736,104.446,387.323,91.563,387.323,75.446Z" transform="translate(153.678 16.877)"/><path class="a" d="M415.521,90.508c2.218,10.2,10.509,15,25,15,12.125,0,21-4.867,21-13,0-6.654-6.311-9.817-14-11l-17-4c-12.421-1.922-22-6.284-22-19,0-13.456,13.109-22,31-22,15.23,0,30.669,5.848,32,23h-10c-1.479-9.759-9.432-15-22-15-11.829,0-20,4.755-20,12,0,5.619,4.206,9.374,15,11l15,4c10.794,1.774,23,6.805,23,21,0,14.491-13.813,22-32,22-19.37,0-31.634-7-34-24Z" transform="translate(194.479 16.815)"/><path class="a" d="M560.091,80.466l-1-2v2h-63c1.626,14.195,10.883,24,27,24,10.351,0,18.6-3.9,22-11h12c-4.436,12.716-17.439,21-34,21-22.771,0-39-16.82-39-39,0-22.032,16.081-39,39-39,21.292,0,36.852,16.525,37,39A28.175,28.175,0,0,1,560.091,80.466Zm-64-9h53c-1.331-15.082-11.214-26-26-26C507.418,45.466,497.718,57.419,496.091,71.466Z" transform="translate(231.909 16.857)"/><path class="b" d="M178.856,109.613c-7.837,28.686-32.653,50.782-64,53a72.155,72.155,0,0,1-77-67c-2.809-39.775,28.225-74.191,68-77,34.6-2.514,63.98,19.766,73,52h1c-9.611-43.176-49.606-73.253-95-70-50.126,3.549-88.549,46.874-85,97a90.553,90.553,0,0,0,97,84,91.561,91.561,0,0,0,83-72Z" transform="translate(0.144 -0.29)"/></g></svg>