<svg xmlns="http://www.w3.org/2000/svg" viewBox="-5128 1729 150 150"><defs><style>.a{fill:#19164e;}.b{fill:#fff;}</style></defs><g transform="translate(-6023 1173)"><path class="a" d="M75,0A75,75,0,1,1,0,75,75,75,0,0,1,75,0Z" transform="translate(895 556)"/><path class="b" d="M72.758,11.755l-6,5a2.169,2.169,0,0,0,0,3,4.2,4.2,0,0,0,2,1c.5,0,.6-.6,1-1l6-5a2.121,2.121,0,0,0-3-3Zm-53,55-6,5a2.169,2.169,0,0,0,0,3c.4.4.5,1,1,1a4.2,4.2,0,0,0,2-1l5-6c.8-.8.8-1.2,0-2S20.561,65.951,19.758,66.755Zm26-55a2,2,0,0,0,2-2v-8a2,2,0,0,0-4,0v8A2,2,0,0,0,45.758,11.755Zm-25,8c.4.4.5,1,1,1s.6-.6,1-1a2.169,2.169,0,0,0,0-3l-5-5a2.121,2.121,0,0,0-3,3Zm-11,20h-8a2,2,0,0,0,0,4h8a2,2,0,0,0,0-4Zm59,27a2.169,2.169,0,0,0-3,0c-.8.8-.8,1.2,0,2l6,6c.4.4.5,1,1,1a4.2,4.2,0,0,0,2-1,2.169,2.169,0,0,0,0-3Zm4-23a21.8,21.8,0,0,0-6-17c-5.42-5.822-13.669-9-22-9s-16.58,3.178-22,9a21.677,21.677,0,0,0-6,17c.8,12.447,5.186,16.089,9,19,2.911,2.309,4.6,3.576,5,10a7.467,7.467,0,0,0,1,2c0,.1-.1-.1,0,0,.2.9,1.1,1,2,1,.2,0-.2.1,0,0l24-6c.2,0-.2.1,0,0,.6-.3.9-.4,1-1,1.1-2.911,2.992-4.294,5-6C67.472,59.844,71.955,55.8,72.758,43.755Zm-11,15a16.882,16.882,0,0,0-6,7l-21,6c-.8-7.227-3.888-9.591-7-12-3.513-2.71-6.4-5.36-7-16a20.249,20.249,0,0,1,5-15,26.563,26.563,0,0,1,38,0,20.386,20.386,0,0,1,5,15C68.055,54.194,65.071,56.044,61.758,58.755Zm-5,16-24,6c-1.1.3-1.3,2-1,3,.2.9,1.1,1,2,1,.2,0-.2.1,0,0l24-6c1.1-.3,1.3-1,1-2S57.862,74.453,56.758,74.755Zm0,9-24,6c-1.1.3-1.3,2-1,3,.2.9,1.1,1,2,1,.2,0-.2.1,0,0h2c.1.3-.2.7,0,1,1.907,2.509,5.487,4,9,4a10.131,10.131,0,0,0,10-10c0-.2.1.2,0,0l3-1c1.1-.3,1.3-1,1-2S57.862,83.453,56.758,83.755Zm-12,11a7,7,0,0,1-5-2l11-3C50.557,92.565,48.071,94.755,44.758,94.755Zm42-53h-7a2,2,0,0,0,0,4h7a2,2,0,0,0,0-4Z" transform="translate(925.242 582.245)"/></g></svg>