<svg xmlns="http://www.w3.org/2000/svg" viewBox="7084 1484 229 95"><defs><style>.a{fill:#ffd200;}</style></defs><g transform="translate(7083.824 1484.124)"><g transform="translate(0 0)"><path d="M8.176,69.724c-2.674,0-4.748.563-7,0v-6a21.57,21.57,0,0,0,7,1c4.081,0,8-1.06,8-5,.141-7.88-16-5.039-16-17,0-6.332,4.416-10,13-10,2.111,0,4.748-.422,7,0v5c-2.111-.7-4.889,0-7,0-4.5,0-7,1.9-7,5,0,7.317,16,4.6,16,16-.141,6.755-5.275,11-14,11" transform="translate(0 13.152)"/><path d="M28.44,66.914a18.99,18.99,0,0,1-4,0v12h-5v-39h5a29.649,29.649,0,0,1,0,5h0a10.041,10.041,0,0,1,9-6c6.473,0,10,4.838,10,13-.141,9.569-5.994,15-15,15m3-23c-4.362,0-7,5.356-7,10v8a11.938,11.938,0,0,0,4,1c4.644,0,8-2.683,8-10C36.58,47.567,35.1,43.914,31.44,43.914Z" transform="translate(7.737 15.962)"/><path d="M53.133,44.932c-5.347-.985-8,2.979-8,11v11h-6v-27h6a35.48,35.48,0,0,1-1,6h0c1.126-3.659,3.934-7.563,9-7v6" transform="translate(16.043 15.944)"/><path d="M55.839,39.049c-2.111,0-3-2.03-3-4s.889-4,3-4a4.237,4.237,0,0,1,4,4,4.036,4.036,0,0,1-4,4m3,31h-6v-27h6v27Z" transform="translate(21.337 12.826)"/><path d="M78.849,66.955v-18c0-3.377-.9-5-4-5-4.081,0-7,4.653-7,10v13h-6v-27h6a31.454,31.454,0,0,1-1,5h0a10.675,10.675,0,0,1,10-6c6.192,0,8,4.216,8,9v19h-6" transform="translate(25.327 15.921)"/><path d="M93.316,69.683c-5.769,0-7-1.949-7-8v-15h-6v-4h6v-9l5-1v10h8v4h-7v13c0,4.081.326,5,3,5a18.951,18.951,0,0,0,4,0v5a42.691,42.691,0,0,1-6,0" transform="translate(32.86 13.193)"/><path class="a" d="M129.486,60.42c9.147-11.68,16-25.15,16-35,0-5.207-3.216-9.186-8-12,0,10.835-3.919,36.024-8,47" transform="translate(52.69 5.456)"/><path class="a" d="M108.118,82.864c21.249-7.177,52.611-24.084,74-39,1.829-1.266,3-2.03,3-4,0-3.518-6.9-8.03-10-10-16.886,17.59-50.114,43.853-67,53" transform="translate(44.058 12.012)"/><path class="a" d="M122.377,71.2c13.087-9.147,32.527-26.713,39-36,1.548-2.252,2-2.748,2-5,0-3.8-3.9-7.03-7-9-7.74,17.871-24.713,40.29-34,50" transform="translate(49.799 8.673)"/><path class="a" d="M133.97,52.066c1.689-11.258.111-25.557-2-34a17.811,17.811,0,0,0-9-11,298.793,298.793,0,0,1,11,45" transform="translate(50.207 2.81)"/><path class="a" d="M136.24,38.876c-3.94-10.695-13.506-33.512-28-39,9.428,10.413,23.075,31.542,28,39" transform="translate(43.936)"/><path d="M139.188,56.951v3h-1v-3h-1v-1h3v1h-1" transform="translate(55.989 22.925)"/><path d="M143.292,59.992v-3h0v1l-1,2h-1v-2a6.7,6.7,0,0,0-1-1h0c0,.281.141.719,0,1v2h-1l1-4h1v2c.141.281,0,.719,0,1h0c0-.281,1-.719,1-1v-2h1v4h0" transform="translate(56.885 22.884)"/><path d="M96.656,36.683a1.825,1.825,0,0,1-2-2,2,2,0,0,1,4,0,1.825,1.825,0,0,1-2,2m0-4a2,2,0,1,0,2,2A2.175,2.175,0,0,0,96.656,32.683Zm1,3-1-1h0v1h-1v-2h1c.563,0,1-.422,1,0a1.229,1.229,0,0,1-1,1,6.551,6.551,0,0,1,1,1Zm-1-2h0v1h0c.422,0,1-.859,1-1C97.656,33.4,96.938,33.683,96.656,33.683Z" transform="translate(38.52 13.193)"/></g></g></svg>