<svg xmlns="http://www.w3.org/2000/svg" viewBox="6398 1487 180 99"><defs><style>.a{fill-rule:evenodd;}.b{fill:#ed1c24;}</style></defs><g transform="translate(6398.016 1486.612)"><g transform="translate(8.984 59.097)"><path class="a" d="M81,65.491l1-6h9l-1,6Zm-68,26-4-23h9l2,14,6-14h9l-12,23Zm125,0,4-23h8v4c2.5-2.7,4.506-5,8-5,5.99,0,8.1,3.711,7,10l-2,14h-9l2-12c.4-2.3.5-5-2-5-2.8,0-4.4,2.105-5,5l-2,12Zm-80,0,4-23h8l-1,5h0c1.9-3.594,4.506-6,8-6h1l-1,9a13.376,13.376,0,0,0-2,0c-3.694,0-6.1,2.009-7,7l-1,8Zm69-18c-3.095,0-4.6,3.4-5,6-.8,4.292-.3,6,2,6,2.4,0,4.3-1.708,5-6,.6-3.394.4-6.1-2-6m-15,7c1.4-7.886,7.313-13,15-13,8.086,0,12.3,4.813,11,12-1.4,8.186-7.613,12-15,12-7.287,0-12.3-3.214-11-11m-71-3h8a3.17,3.17,0,0,0-3-4,4.985,4.985,0,0,0-5,4m17,4H40a4.2,4.2,0,0,0,4,5,5.074,5.074,0,0,0,4-2h8c-2.6,5.69-8.609,7-14,7-7.287,0-11.3-3.413-10-11a15.5,15.5,0,0,1,15-13c8.385,0,12.6,5.814,11,14m27,10H76l4-23h9Z" transform="translate(-9 -59.2)"/></g><path class="b" d="M24.984,56.388l2-1,2,4-7,2-22-60,4-1Z"/><g transform="translate(19.666)"><path class="b" d="M25.018,56.388l153-56,2,4-158,57-2-6,4-1Z" transform="translate(-19.7)"/></g><g transform="translate(86.648 68.38)"><path class="b" d="M87.135,99.507l1-5,14-19h-11l1-7h22l-1,6-15,19h64l-1,6h-74Z" transform="translate(-86.8 -68.5)"/></g></g></svg>